<svg width="256" height="256" viewBox="0 0 256 256" fill="none" xmlns="http://www.w3.org/2000/svg">
<path d="M127.334 26.6666C182.93 26.6666 228 71.7367 228 127.333C228 182.93 182.93 228 127.334 228C71.7367 228 26.6667 182.93 26.6667 127.333C26.6667 71.7367 71.7367 26.6666 127.334 26.6666Z" stroke="#0FA958" stroke-width="11.8335"/>
<path d="M210.249 127.333C210.249 81.5399 173.127 44.417 127.333 44.417C81.5399 44.417 44.417 81.5399 44.417 127.333C44.417 173.127 81.5399 210.249 127.333 210.249C173.127 210.249 210.249 173.127 210.249 127.333Z" fill="#0FA958"/>
<path d="M95.1589 137.433C95.1589 139.341 95.4956 141.134 96.1699 142.812C96.8443 144.415 97.7436 145.826 98.8673 147.047C100.066 148.267 101.452 149.221 103.026 149.908C104.674 150.594 106.435 150.938 108.308 150.938C110.106 150.938 111.792 150.594 113.365 149.908C115.014 149.221 116.4 148.267 117.523 147.047C118.723 145.826 119.659 144.415 120.333 142.812C121.083 141.21 121.457 139.493 121.457 137.662C121.457 135.831 121.083 134.114 120.333 132.512C119.659 130.834 118.723 129.384 117.523 128.163C116.4 126.942 115.014 125.989 113.365 125.302C111.792 124.615 110.106 124.272 108.308 124.272C106.435 124.272 104.674 124.615 103.026 125.302C101.452 125.989 100.066 126.942 98.8673 128.163C97.7436 129.384 96.8443 130.795 96.1699 132.397C95.4956 133.923 95.1589 135.602 95.1589 137.433ZM120.783 108.249H141.237V166.96H120.783V160.437C116.437 166.007 110.556 168.792 103.138 168.792C98.9421 168.792 95.0836 168.028 91.5623 166.503C88.0409 164.9 84.969 162.687 82.3464 159.865C79.7243 157.042 77.6639 153.723 76.1651 149.908C74.7416 146.093 74.0298 141.935 74.0298 137.433C74.0298 133.237 74.7416 129.269 76.1651 125.531C77.5891 121.716 79.5742 118.397 82.122 115.574C84.6692 112.751 87.7037 110.538 91.2251 108.936C94.7464 107.258 98.6428 106.418 102.913 106.418C110.106 106.418 116.063 108.974 120.783 114.086V108.249ZM167.555 108.249V166.96H147.213V108.249H167.555ZM145.864 85.7036C145.864 84.1013 146.164 82.6137 146.764 81.2402C147.363 79.7905 148.187 78.5317 149.236 77.4633C150.285 76.3954 151.484 75.5559 152.833 74.9457C154.256 74.335 155.754 74.0299 157.328 74.0299C158.901 74.0299 160.362 74.335 161.711 74.9457C163.135 75.5559 164.371 76.3954 165.42 77.4633C166.469 78.5317 167.293 79.7905 167.892 81.2402C168.492 82.6137 168.791 84.1013 168.791 85.7036C168.791 87.3059 168.492 88.8319 167.892 90.2812C167.293 91.6546 166.469 92.8755 165.42 93.9439C164.371 95.0118 163.135 95.8513 161.711 96.4615C160.362 97.0717 158.901 97.3768 157.328 97.3768C155.754 97.3768 154.256 97.0717 152.833 96.4615C151.484 95.8513 150.285 95.0118 149.236 93.9439C148.187 92.8755 147.363 91.6546 146.764 90.2812C146.164 88.8319 145.864 87.3059 145.864 85.7036Z" fill="white"/>
</svg>
